<mxfile host="app.diagrams.net" agent="Mozilla/5.0 (Windows NT 10.0; Win64; x64) AppleWebKit/537.36 (KHTML, like Gecko) Chrome/129.0.0.0 Safari/537.36" version="24.7.17">
  <diagram name="PÃ¡gina-1" id="qiO6tGmZQDndpgreDG9k">
    <mxGraphModel dx="1290" dy="557" grid="1" gridSize="10" guides="1" tooltips="1" connect="1" arrows="1" fold="1" page="1" pageScale="1" pageWidth="827" pageHeight="1169" math="0" shadow="0">
      <root>
        <mxCell id="0" />
        <mxCell id="1" parent="0" />
        <mxCell id="NQdcdel10DfEMZxih-fd-1" value="FORNECEDOR" style="rounded=0;whiteSpace=wrap;html=1;" vertex="1" parent="1">
          <mxGeometry x="40" y="200" width="120" height="60" as="geometry" />
        </mxCell>
        <mxCell id="NQdcdel10DfEMZxih-fd-3" value="PRODUTO" style="rounded=0;whiteSpace=wrap;html=1;" vertex="1" parent="1">
          <mxGeometry x="339" y="200" width="120" height="60" as="geometry" />
        </mxCell>
        <mxCell id="NQdcdel10DfEMZxih-fd-4" value="CLIENTE" style="rounded=0;whiteSpace=wrap;html=1;" vertex="1" parent="1">
          <mxGeometry x="650" y="555" width="120" height="60" as="geometry" />
        </mxCell>
        <mxCell id="NQdcdel10DfEMZxih-fd-5" value="VENDA" style="rounded=0;whiteSpace=wrap;html=1;" vertex="1" parent="1">
          <mxGeometry x="339" y="380" width="120" height="60" as="geometry" />
        </mxCell>
        <mxCell id="NQdcdel10DfEMZxih-fd-6" value="ITENS_VENDA" style="rounded=0;whiteSpace=wrap;html=1;" vertex="1" parent="1">
          <mxGeometry x="339" y="554.5" width="120" height="60" as="geometry" />
        </mxCell>
        <mxCell id="NQdcdel10DfEMZxih-fd-7" value="ESTOQUE_PRODUTOS" style="rounded=0;whiteSpace=wrap;html=1;" vertex="1" parent="1">
          <mxGeometry x="640" y="200" width="140" height="60" as="geometry" />
        </mxCell>
        <mxCell id="NQdcdel10DfEMZxih-fd-8" value="CATEGORIA_PRODUTO" style="rounded=0;whiteSpace=wrap;html=1;" vertex="1" parent="1">
          <mxGeometry x="324" y="20" width="150" height="60" as="geometry" />
        </mxCell>
        <mxCell id="NQdcdel10DfEMZxih-fd-9" value="POSSUI" style="rhombus;whiteSpace=wrap;html=1;" vertex="1" parent="1">
          <mxGeometry x="329" y="110" width="140" height="60" as="geometry" />
        </mxCell>
        <mxCell id="NQdcdel10DfEMZxih-fd-11" value="POSSUI" style="rhombus;whiteSpace=wrap;html=1;" vertex="1" parent="1">
          <mxGeometry x="180" y="200" width="140" height="60" as="geometry" />
        </mxCell>
        <mxCell id="NQdcdel10DfEMZxih-fd-12" value="OBTEM" style="rhombus;whiteSpace=wrap;html=1;" vertex="1" parent="1">
          <mxGeometry x="490" y="555" width="140" height="60" as="geometry" />
        </mxCell>
        <mxCell id="NQdcdel10DfEMZxih-fd-13" value="ESTA" style="rhombus;whiteSpace=wrap;html=1;" vertex="1" parent="1">
          <mxGeometry x="480" y="200" width="140" height="60" as="geometry" />
        </mxCell>
        <mxCell id="NQdcdel10DfEMZxih-fd-14" value="POSSUI" style="rhombus;whiteSpace=wrap;html=1;" vertex="1" parent="1">
          <mxGeometry x="329" y="290" width="140" height="60" as="geometry" />
        </mxCell>
        <mxCell id="NQdcdel10DfEMZxih-fd-15" value="OBTEM" style="rhombus;whiteSpace=wrap;html=1;" vertex="1" parent="1">
          <mxGeometry x="329" y="470" width="140" height="60" as="geometry" />
        </mxCell>
        <mxCell id="NQdcdel10DfEMZxih-fd-16" value="" style="endArrow=none;html=1;rounded=0;entryX=0.5;entryY=1;entryDx=0;entryDy=0;" edge="1" parent="1" target="NQdcdel10DfEMZxih-fd-8">
          <mxGeometry width="50" height="50" relative="1" as="geometry">
            <mxPoint x="399" y="110" as="sourcePoint" />
            <mxPoint x="440" y="240" as="targetPoint" />
          </mxGeometry>
        </mxCell>
        <mxCell id="NQdcdel10DfEMZxih-fd-18" value="" style="endArrow=none;html=1;rounded=0;entryX=0.5;entryY=1;entryDx=0;entryDy=0;exitX=0.5;exitY=0;exitDx=0;exitDy=0;" edge="1" parent="1" source="NQdcdel10DfEMZxih-fd-3" target="NQdcdel10DfEMZxih-fd-9">
          <mxGeometry width="50" height="50" relative="1" as="geometry">
            <mxPoint x="90" y="380" as="sourcePoint" />
            <mxPoint x="140" y="330" as="targetPoint" />
          </mxGeometry>
        </mxCell>
        <mxCell id="NQdcdel10DfEMZxih-fd-19" value="" style="endArrow=none;html=1;rounded=0;entryX=0;entryY=0.5;entryDx=0;entryDy=0;exitX=1;exitY=0.5;exitDx=0;exitDy=0;" edge="1" parent="1" source="NQdcdel10DfEMZxih-fd-11" target="NQdcdel10DfEMZxih-fd-3">
          <mxGeometry width="50" height="50" relative="1" as="geometry">
            <mxPoint x="70" y="450" as="sourcePoint" />
            <mxPoint x="120" y="400" as="targetPoint" />
          </mxGeometry>
        </mxCell>
        <mxCell id="NQdcdel10DfEMZxih-fd-20" value="" style="endArrow=none;html=1;rounded=0;entryX=0;entryY=0.5;entryDx=0;entryDy=0;exitX=1;exitY=0.5;exitDx=0;exitDy=0;" edge="1" parent="1" source="NQdcdel10DfEMZxih-fd-1" target="NQdcdel10DfEMZxih-fd-11">
          <mxGeometry width="50" height="50" relative="1" as="geometry">
            <mxPoint x="140" y="370" as="sourcePoint" />
            <mxPoint x="190" y="320" as="targetPoint" />
          </mxGeometry>
        </mxCell>
        <mxCell id="NQdcdel10DfEMZxih-fd-21" value="" style="endArrow=none;html=1;rounded=0;entryX=0.5;entryY=1;entryDx=0;entryDy=0;exitX=0.5;exitY=0;exitDx=0;exitDy=0;" edge="1" parent="1" source="NQdcdel10DfEMZxih-fd-14" target="NQdcdel10DfEMZxih-fd-3">
          <mxGeometry width="50" height="50" relative="1" as="geometry">
            <mxPoint x="210" y="470" as="sourcePoint" />
            <mxPoint x="260" y="420" as="targetPoint" />
          </mxGeometry>
        </mxCell>
        <mxCell id="NQdcdel10DfEMZxih-fd-22" value="" style="endArrow=none;html=1;rounded=0;entryX=0.5;entryY=1;entryDx=0;entryDy=0;exitX=0.5;exitY=0;exitDx=0;exitDy=0;" edge="1" parent="1" source="NQdcdel10DfEMZxih-fd-5" target="NQdcdel10DfEMZxih-fd-14">
          <mxGeometry width="50" height="50" relative="1" as="geometry">
            <mxPoint x="120" y="440" as="sourcePoint" />
            <mxPoint x="170" y="390" as="targetPoint" />
          </mxGeometry>
        </mxCell>
        <mxCell id="NQdcdel10DfEMZxih-fd-23" value="" style="endArrow=none;html=1;rounded=0;entryX=0.5;entryY=1;entryDx=0;entryDy=0;exitX=0.5;exitY=0;exitDx=0;exitDy=0;" edge="1" parent="1" source="NQdcdel10DfEMZxih-fd-15" target="NQdcdel10DfEMZxih-fd-5">
          <mxGeometry width="50" height="50" relative="1" as="geometry">
            <mxPoint x="-30" y="460" as="sourcePoint" />
            <mxPoint x="20" y="410" as="targetPoint" />
          </mxGeometry>
        </mxCell>
        <mxCell id="NQdcdel10DfEMZxih-fd-24" value="" style="endArrow=none;html=1;rounded=0;entryX=0.5;entryY=1;entryDx=0;entryDy=0;exitX=0.5;exitY=0;exitDx=0;exitDy=0;" edge="1" parent="1" source="NQdcdel10DfEMZxih-fd-6" target="NQdcdel10DfEMZxih-fd-15">
          <mxGeometry width="50" height="50" relative="1" as="geometry">
            <mxPoint x="170" y="560" as="sourcePoint" />
            <mxPoint x="220" y="510" as="targetPoint" />
          </mxGeometry>
        </mxCell>
        <mxCell id="NQdcdel10DfEMZxih-fd-25" value="" style="endArrow=none;html=1;rounded=0;exitX=1;exitY=0.5;exitDx=0;exitDy=0;entryX=0;entryY=0.5;entryDx=0;entryDy=0;" edge="1" parent="1" source="NQdcdel10DfEMZxih-fd-6" target="NQdcdel10DfEMZxih-fd-12">
          <mxGeometry width="50" height="50" relative="1" as="geometry">
            <mxPoint x="570" y="470" as="sourcePoint" />
            <mxPoint x="620" y="420" as="targetPoint" />
          </mxGeometry>
        </mxCell>
        <mxCell id="NQdcdel10DfEMZxih-fd-26" value="" style="endArrow=none;html=1;rounded=0;exitX=1;exitY=0.5;exitDx=0;exitDy=0;entryX=0;entryY=0.5;entryDx=0;entryDy=0;" edge="1" parent="1" source="NQdcdel10DfEMZxih-fd-12" target="NQdcdel10DfEMZxih-fd-4">
          <mxGeometry width="50" height="50" relative="1" as="geometry">
            <mxPoint x="520" y="450" as="sourcePoint" />
            <mxPoint x="570" y="400" as="targetPoint" />
          </mxGeometry>
        </mxCell>
        <mxCell id="NQdcdel10DfEMZxih-fd-27" value="" style="endArrow=none;html=1;rounded=0;entryX=0;entryY=0.5;entryDx=0;entryDy=0;exitX=1;exitY=0.5;exitDx=0;exitDy=0;" edge="1" parent="1" source="NQdcdel10DfEMZxih-fd-13" target="NQdcdel10DfEMZxih-fd-7">
          <mxGeometry width="50" height="50" relative="1" as="geometry">
            <mxPoint x="680" y="480" as="sourcePoint" />
            <mxPoint x="730" y="430" as="targetPoint" />
          </mxGeometry>
        </mxCell>
        <mxCell id="NQdcdel10DfEMZxih-fd-28" value="" style="endArrow=none;html=1;rounded=0;exitX=1;exitY=0.5;exitDx=0;exitDy=0;entryX=0;entryY=0.5;entryDx=0;entryDy=0;" edge="1" parent="1" source="NQdcdel10DfEMZxih-fd-3" target="NQdcdel10DfEMZxih-fd-13">
          <mxGeometry width="50" height="50" relative="1" as="geometry">
            <mxPoint x="560" y="330" as="sourcePoint" />
            <mxPoint x="610" y="280" as="targetPoint" />
          </mxGeometry>
        </mxCell>
        <mxCell id="NQdcdel10DfEMZxih-fd-29" value="" style="ellipse;BlackSpace=wrap;html=1;aspect=fixed;fillColor=#000000;" vertex="1" parent="1">
          <mxGeometry x="30" y="140" width="20" height="20" as="geometry" />
        </mxCell>
        <mxCell id="NQdcdel10DfEMZxih-fd-30" value="" style="endArrow=none;html=1;rounded=0;entryX=0.5;entryY=1;entryDx=0;entryDy=0;exitX=0;exitY=0;exitDx=0;exitDy=0;" edge="1" parent="1" source="NQdcdel10DfEMZxih-fd-1" target="NQdcdel10DfEMZxih-fd-29">
          <mxGeometry width="50" height="50" relative="1" as="geometry">
            <mxPoint x="-30" y="280" as="sourcePoint" />
            <mxPoint x="20" y="230" as="targetPoint" />
          </mxGeometry>
        </mxCell>
        <mxCell id="NQdcdel10DfEMZxih-fd-31" value="" style="ellipse;whiteSpace=wrap;html=1;aspect=fixed;" vertex="1" parent="1">
          <mxGeometry x="60" y="140" width="20" height="20" as="geometry" />
        </mxCell>
        <mxCell id="NQdcdel10DfEMZxih-fd-32" value="" style="endArrow=none;html=1;rounded=0;entryX=0.5;entryY=1;entryDx=0;entryDy=0;exitX=0.25;exitY=0;exitDx=0;exitDy=0;" edge="1" parent="1" source="NQdcdel10DfEMZxih-fd-1" target="NQdcdel10DfEMZxih-fd-31">
          <mxGeometry width="50" height="50" relative="1" as="geometry">
            <mxPoint y="410" as="sourcePoint" />
            <mxPoint x="50" y="360" as="targetPoint" />
          </mxGeometry>
        </mxCell>
        <mxCell id="NQdcdel10DfEMZxih-fd-33" value="" style="ellipse;whiteSpace=wrap;html=1;aspect=fixed;" vertex="1" parent="1">
          <mxGeometry x="90" y="140" width="20" height="20" as="geometry" />
        </mxCell>
        <mxCell id="NQdcdel10DfEMZxih-fd-34" value="" style="endArrow=none;html=1;rounded=0;entryX=0.5;entryY=1;entryDx=0;entryDy=0;exitX=0.5;exitY=0;exitDx=0;exitDy=0;" edge="1" parent="1" source="NQdcdel10DfEMZxih-fd-1" target="NQdcdel10DfEMZxih-fd-33">
          <mxGeometry width="50" height="50" relative="1" as="geometry">
            <mxPoint x="110" y="470" as="sourcePoint" />
            <mxPoint x="160" y="420" as="targetPoint" />
          </mxGeometry>
        </mxCell>
        <mxCell id="NQdcdel10DfEMZxih-fd-35" value="" style="ellipse;whiteSpace=wrap;html=1;aspect=fixed;" vertex="1" parent="1">
          <mxGeometry x="120" y="140" width="20" height="20" as="geometry" />
        </mxCell>
        <mxCell id="NQdcdel10DfEMZxih-fd-36" value="" style="endArrow=none;html=1;rounded=0;entryX=0.5;entryY=1;entryDx=0;entryDy=0;exitX=0.75;exitY=0;exitDx=0;exitDy=0;" edge="1" parent="1" source="NQdcdel10DfEMZxih-fd-1" target="NQdcdel10DfEMZxih-fd-35">
          <mxGeometry width="50" height="50" relative="1" as="geometry">
            <mxPoint y="410" as="sourcePoint" />
            <mxPoint x="50" y="360" as="targetPoint" />
          </mxGeometry>
        </mxCell>
        <mxCell id="NQdcdel10DfEMZxih-fd-37" value="" style="ellipse;whiteSpace=wrap;html=1;aspect=fixed;" vertex="1" parent="1">
          <mxGeometry x="150" y="140" width="20" height="20" as="geometry" />
        </mxCell>
        <mxCell id="NQdcdel10DfEMZxih-fd-38" value="" style="endArrow=none;html=1;rounded=0;entryX=0.5;entryY=1;entryDx=0;entryDy=0;exitX=1;exitY=0;exitDx=0;exitDy=0;" edge="1" parent="1" source="NQdcdel10DfEMZxih-fd-1" target="NQdcdel10DfEMZxih-fd-37">
          <mxGeometry width="50" height="50" relative="1" as="geometry">
            <mxPoint x="230" y="360" as="sourcePoint" />
            <mxPoint x="280" y="310" as="targetPoint" />
          </mxGeometry>
        </mxCell>
      </root>
    </mxGraphModel>
  </diagram>
</mxfile>
